#!OML:ASF X:\für Bonn\!DataBase\2005_08_10_Bjorn_Final\c3d\bjorn.ASF
:FULLY-SPECIFIED
:DEGREES
188
root 4.40696 11.3463 0.417778 475.768 82.9107 -600.711
lowerback 33.7073 -0.394831 4.98214
upperback 16.8578 3.44137 3.58599
thorax 1.3061 2.83928 0.177247
lowerneck -8.64263 -4.80368 3.76764
upperneck -3.42761 -6.64162 -8.47544
head -0.0400404 -3.37755 -3.56044
rclavicle 3.02153e-014 1.43125e-014
rhumerus 5.8534 -30.1408 -76.3506
rradius 15.293
rwrist 39.9623
rhand -39.3977 20.1867
rfingers 7.12502
rthumb -12.3871 -9.42627
lclavicle 3.02153e-014 1.43125e-014
lhumerus -3.5493 -42.9857 58.297
lradius 57.4612
lwrist -8.4726
lhand -29.1145 -12.2817
lfingers 7.12502
lthumb -2.46229 17.6838
rfemur -58.6943 -25.5044 -9.58421
rtibia 131.437
rfoot -20.4777 46.848
rtoes -19.9436
lfemur -72.1732 10.3843 -29.4977
ltibia 128.969
lfoot -27.7287 -2.31262
ltoes -29.125
189
root 4.42955 11.5089 0.416392 476.234 82.9435 -600.6
lowerback 33.1064 -0.277307 4.91272
upperback 16.6691 3.46261 3.49266
thorax 1.31679 2.82255 0.116627
lowerneck -8.72467 -4.79073 3.75935
upperneck -3.25222 -6.6145 -8.47806
head 0.0329321 -3.3692 -3.56592
rclavicle -2.54444e-014 -5.725e-014
rhumerus 5.44926 -29.4851 -76.3964
rradius 15.3681
rwrist 39.6052
rhand -38.7084 19.8309
rfingers 7.12502
rthumb -11.7225 -9.82113
lclavicle -2.54444e-014 -5.725e-014
lhumerus -3.99437 -42.8024 58.2085
lradius 57.9271
lwrist -7.97074
lhand -29.4233 -11.6877
lfingers 7.12502
lthumb -2.76054 18.2742
rfemur -58.4718 -23.3815 -8.3241
rtibia 130.227
rfoot -20.8893 45.0902
rtoes -20.394
lfemur -71.4898 9.92144 -29.4066
ltibia 127.711
lfoot -27.6504 -2.12214
ltoes -29.2285
190
root 4.453 11.6723 0.413891 476.722 82.9768 -600.474
lowerback 32.4775 -0.164391 4.84341
upperback 16.4787 3.47748 3.39894
thorax 1.33994 2.80269 0.0590146
lowerneck -8.78593 -4.77619 3.72459
upperneck -3.1101 -6.58448 -8.43984
head 0.0940288 -3.3578 -3.55086
rclavicle -9.54166e-015 -5.725e-014
rhumerus 5.01063 -28.7872 -76.4366
rradius 15.4901
rwrist 39.2118
rhand -38.0197 19.5255
rfingers 7.12502
rthumb -11.0582 -10.1632
lclavicle -9.54166e-015 -5.725e-014
lhumerus -4.45216 -42.5756 58.2105
lradius 58.3182
lwrist -7.50738
lhand -29.7562 -11.1015
lfingers 7.12502
lthumb -3.08197 18.8559
rfemur -58.1795 -21.4354 -7.16999
rtibia 128.991
rfoot -21.4173 43.3886
rtoes -20.9008
lfemur -70.7867 9.49278 -29.3215
ltibia 126.423
lfoot -27.6126 -1.95187
ltoes -29.2731
191
root 4.4775 11.8376 0.41078 476.985 83.0024 -600.583
lowerback 31.4441 -0.0132337 4.71702
upperback 16.4385 3.4911 3.33515
thorax 1.59699 2.78707 0.0375504
lowerneck -8.80755 -4.78041 3.66358
upperneck -2.98125 -6.5777 -8.38561
head 0.1437 -3.35658 -3.524
rclavicle 6.36111e-015 1.27222e-014
rhumerus 4.56831 -28.18 -76.5099
rradius 15.6309
rwrist 39.0037
rhand -37.3419 19.0741
rfingers 7.12502
rthumb -10.4045 -10.6484
lclavicle 6.36111e-015 1.27222e-014
lhumerus -4.9126 -42.349 58.2593
lradius 58.656
lwrist -7.16156
lhand -30.1108 -10.5267
lfingers 7.12502
lthumb -3.4245 19.4255
rfemur -57.8647 -19.6091 -6.13109
rtibia 127.739
rfoot -21.9718 41.7479
rtoes -21.5849
lfemur -70.0647 9.08992 -29.2501
ltibia 125.11
lfoot -27.5708 -1.82705
ltoes -29.278
192
root 4.5032 12.0044 0.406879 477.35 83.0446 -600.577
lowerback 30.7973 0.0980179 4.6401
upperback 16.244 3.50756 3.25309
thorax 1.64592 2.76758 -0.00020617
lowerneck -8.84839 -4.78346 3.49685
upperneck -2.87611 -6.55981 -8.27052
head 0.195182 -3.34774 -3.45645
rclavicle 7.95139e-015 1.90833e-014
rhumerus 4.11972 -27.3336 -76.5113
rradius 15.8331
rwrist 38.577
rhand -36.561 18.6686
rfingers 7.12502
rthumb -9.6511 -11.0903
lclavicle 7.95139e-015 1.90833e-014
lhumerus -5.4126 -42.0148 58.4565
lradius 58.9207
lwrist -6.92216
lhand -30.4669 -10.0239
lfingers 7.12502
lthumb -3.7683 19.9225
rfemur -57.4751 -17.9258 -5.15536
rtibia 126.453
rfoot -22.4784 40.2057
rtoes -22.0504
lfemur -69.3176 8.72125 -29.1549
ltibia 123.779
lfoot -27.5524 -1.7242
ltoes -29.2808
193
root 4.53005 12.171 0.402768 477.498 83.0585 -600.783
lowerback 30.1346 0.207181 4.52997
upperback 16.0519 3.51313 3.14366
thorax 1.70784 2.74228 -0.0445594
lowerneck -8.83616 -4.77494 3.39955
upperneck -2.82543 -6.53569 -8.20217
head 0.216405 -3.33481 -3.41492
rclavicle 3.49861e-014 0
rhumerus 3.64935 -26.4553 -76.5528
rradius 16.0875
rwrist 38.1279
rhand -35.6888 18.3726
rfingers 7.12502
rthumb -8.80953 -11.4235
lclavicle 3.49861e-014 0
lhumerus -5.90812 -41.6682 58.661
lradius 59.1502
lwrist -6.68383
lhand -30.7593 -9.6142
lfingers 7.12502
lthumb -4.05068 20.327
rfemur -57.0554 -16.4009 -4.28096
rtibia 125.167
rfoot -23.3063 38.5518
rtoes -23.3349
lfemur -68.5268 8.35387 -29.1046
ltibia 122.413
lfoot -27.5404 -1.59763
ltoes -29.2016
194
root 4.55726 12.3383 0.398234 477.666 83.0728 -600.967
lowerback 29.4332 0.321815 4.44282
upperback 15.8794 3.53353 3.03177
thorax 1.81585 2.72839 -0.104339
lowerneck -8.87145 -4.78712 3.29002
upperneck -2.73755 -6.5368 -8.10713
head 0.257378 -3.33591 -3.36507
rclavicle 6.67916e-014 3.18055e-014
rhumerus 3.22793 -25.7873 -76.6407
rradius 16.3222
rwrist 37.731
rhand -34.6975 18.2484
rfingers 7.12502
rthumb -7.8528 -11.5857
lclavicle 6.67916e-014 3.18055e-014
lhumerus -6.282 -41.3446 58.869
lradius 59.2687
lwrist -6.48652
lhand -31.0466 -9.33216
lfingers 7.12502
lthumb -4.32812 20.6036
rfemur -56.6057 -15.0264 -3.4499
rtibia 123.87
rfoot -24.3449 36.8112
rtoes -25.1211
lfemur -67.7419 8.01626 -29.0466
ltibia 121.028
lfoot -27.5268 -1.53477
ltoes -29.0779
195
root 4.58632 12.5064 0.39404 477.659 83.0959 -601.317
lowerback 28.7276 0.449388 4.32224
upperback 15.7046 3.56477 2.92857
thorax 1.92464 2.71704 -0.137336
lowerneck -8.93115 -4.79527 3.20578
upperneck -2.62888 -6.5335 -8.05604
head 0.307288 -3.33615 -3.33647
rclavicle -1.11319e-014 7.95139e-015
rhumerus 2.81307 -25.0074 -76.7083
rradius 16.4888
rwrist 37.0965
rhand -33.7636 18.329
rfingers 7.12502
rthumb -6.95139 -11.5369
lclavicle -1.11319e-014 7.95139e-015
lhumerus -6.69881 -40.9986 59.1591
lradius 59.3354
lwrist -6.35311
lhand -31.2872 -9.20728
lfingers 7.12502
lthumb -4.56051 20.7236
rfemur -56.1163 -13.7406 -2.67279
rtibia 122.536
rfoot -25.2161 35.1307
rtoes -26.7531
lfemur -66.9263 7.7214 -28.9869
ltibia 119.615
lfoot -27.5255 -1.46092
ltoes -29.0974
196
root 4.61521 12.6744 0.389913 477.662 83.079 -601.641
lowerback 28.0379 0.566287 4.20579
upperback 15.5164 3.58704 2.80286
thorax 2.01647 2.70216 -0.195148
lowerneck -8.95789 -4.81773 3.06645
upperneck -2.51466 -6.54429 -7.94845
head 0.35589 -3.3421 -3.27757
rclavicle 6.36111e-014 5.24792e-014
rhumerus 2.32666 -24.1736 -76.7628
rradius 16.7255
rwrist 36.3159
rhand -32.6961 18.3915
rfingers 7.12502
rthumb -5.92083 -11.5057
lclavicle 6.36111e-014 5.24792e-014
lhumerus -7.14487 -40.6355 59.5014
lradius 59.3525
lwrist -6.31157
lhand -31.3676 -9.24611
lfingers 7.12502
lthumb -4.6381 20.6831
rfemur -55.5762 -12.5748 -2.02282
rtibia 121.187
rfoot -25.9158 33.607
rtoes -27.9955
lfemur -66.0662 7.39099 -28.9538
ltibia 118.162
lfoot -27.5063 -1.44439
ltoes -28.7473
197
root 4.64511 12.8426 0.384741 477.475 83.0538 -602.173
lowerback 27.3204 0.68955 4.06491
upperback 15.3216 3.61125 2.66091
thorax 2.1169 2.68672 -0.255145
lowerneck -9.05794 -4.82703 3.00259
upperneck -2.34153 -6.54216 -7.88728
head 0.433119 -3.34537 -3.25266
rclavicle -9.54166e-015 -3.18055e-015
rhumerus 1.86954 -23.4332 -76.8763
rradius 16.9475
rwrist 35.5929
rhand -31.5927 18.3555
rfingers 7.12502
rthumb -4.85547 -11.5689
lclavicle -9.54166e-015 -3.18055e-015
lhumerus -7.61623 -40.2842 59.8786
lradius 59.3257
lwrist -6.25218
lhand -31.365 -9.2439
lfingers 7.12502
lthumb -4.6356 20.6854
rfemur -55.0005 -11.4697 -1.48615
rtibia 119.781
rfoot -26.1996 32.4578
rtoes -28.2375
lfemur -65.2318 7.07993 -28.9566
ltibia 116.689
lfoot -27.469 -1.40577
ltoes -28.5114
198
root 4.67579 13.0106 0.380453 477.25 83.049 -602.705
lowerback 26.6337 0.812367 3.93325
upperback 15.121 3.64349 2.52215
thorax 2.20146 2.67589 -0.319078
lowerneck -9.12805 -4.85041 2.90828
upperneck -2.14502 -6.555 -7.81353
head 0.513111 -3.35572 -3.21777
rclavicle 4.77083e-015 3.18055e-014
rhumerus 1.39874 -22.8126 -77.0007
rradius 17.162
rwrist 34.9388
rhand -30.459 18.3816
rfingers 7.12502
rthumb -3.76071 -11.5649
lclavicle 4.77083e-015 3.18055e-014
lhumerus -8.11526 -39.9394 60.3097
lradius 59.2426
lwrist -6.22667
lhand -31.3035 -9.26518
lfingers 7.12502
lthumb -4.57621 20.6654
rfemur -54.3421 -10.3902 -1.00847
rtibia 118.339
rfoot -26.0474 31.6487
rtoes -27.247
lfemur -64.3549 6.82371 -28.9193
ltibia 115.2
lfoot -27.4501 -1.44041
ltoes -28.1154
199
root 4.70739 13.1807 0.375539 477.037 83.0249 -603.216
lowerback 25.9497 0.91812 3.77849
upperback 14.9115 3.65253 2.37753
thorax 2.27673 2.65191 -0.370406
lowerneck -9.1868 -4.86459 2.78611
upperneck -1.93382 -6.55271 -7.70947
head 0.598607 -3.35821 -3.1673
rclavicle 1.59028e-014 1.27222e-014
rhumerus 0.950977 -22.3702 -77.1542
rradius 17.3431
rwrist 34.2768
rhand -29.2066 18.5357
rfingers 7.12502
rthumb -2.55122 -11.4288
lclavicle 1.59028e-014 1.27222e-014
lhumerus -8.6907 -39.5684 60.7868
lradius 59.142
lwrist -6.18494
lhand -31.1446 -9.35907
lfingers 7.12502
lthumb -4.42279 20.5747
rfemur -53.6299 -9.40162 -0.595967
rtibia 116.848
rfoot -26.0163 30.8921
rtoes -26.426
lfemur -63.4334 6.53984 -28.8948
ltibia 113.659
lfoot -27.4312 -1.52015
ltoes -27.5137
200
root 4.73946 13.3518 0.371832 477.146 83.0193 -603.401
lowerback 25.2732 1.01528 3.6643
upperback 14.6985 3.66442 2.24138
thorax 2.35045 2.63211 -0.435325
lowerneck -9.27012 -4.89496 2.6697
upperneck -1.70706 -6.57176 -7.6133
head 0.691698 -3.37211 -3.12276
rclavicle -2.22639e-014 -6.36111e-015
rhumerus 0.486264 -21.8117 -77.2792
rradius 17.5705
rwrist 33.3458
rhand -27.9098 18.5283
rfingers 7.12502
rthumb -1.29876 -11.4475
lclavicle -2.22639e-014 -6.36111e-015
lhumerus -9.24938 -39.1647 61.314
lradius 58.9757
lwrist -6.22189
lhand -30.9394 -9.40457
lfingers 7.12502
lthumb -4.22464 20.5333
rfemur -52.8751 -8.46966 -0.184257
rtibia 115.321
rfoot -25.9194 30.2575
rtoes -25.2891
lfemur -62.5028 6.23637 -28.8235
ltibia 112.096
lfoot -27.4302 -1.58025
ltoes -27.0179
